# xmcd
#
# Track frame offsets:
#	150
#	14675
#	35228
#	56322
#	104847
#	127339
#	145803
#
# Disc length: 2373 seconds
#
# Revision: 2
# Processed by: cddbd v1.5.2PL0 Copyright (c) Steve Scherf et al.
# Submitted via: audiograbber 1.83.01
#
DISCID=6d094307
DTITLE=Perth - The birthday party
DYEAR=2006
DGENRE=Rock
TTITLE0=O
TTITLE1=They do it width mirrors
TTITLE2=Albator
TTITLE3=Blind
TTITLE4=Five
TTITLE5=Feedback
TTITLE6=Acouphène
EXTD=
EXTT0=
EXTT1=
EXTT2=
EXTT3=
EXTT4=
EXTT5=
EXTT6=
PLAYORDER=
